<?xml version="1.0" encoding="UTF-8"?>
<svg id="Capa_2" data-name="Capa 2" xmlns="http://www.w3.org/2000/svg" xmlns:xlink="http://www.w3.org/1999/xlink" viewBox="0 0 1920 380.1">
  <defs>
    <style>
      .cls-1, .cls-2 {
        fill: none;
      }

      .cls-2 {
        stroke: #48757c;
        stroke-miterlimit: 10;
        stroke-width: 2px;
      }

      .cls-3 {
        fill: url(#Degradado_sin_nombre_10);
      }

      .cls-4 {
        clip-path: url(#clippath);
      }
    </style>
    <clipPath id="clippath">
      <rect class="cls-1" width="1920" height="380.1"/>
    </clipPath>
    <radialGradient id="Degradado_sin_nombre_10" data-name="Degradado sin nombre 10" cx="960" cy="163.6" fx="960" fy="163.6" r="943.33" gradientTransform="translate(220.11 6.49) scale(.77 .93)" gradientUnits="userSpaceOnUse">
      <stop offset="0" stop-color="#375860"/>
      <stop offset="1" stop-color="#212528"/>
    </radialGradient>
  </defs>
  <g id="Capa_3" data-name="Capa 3">
    <g class="cls-4">
      <g>
        <path class="cls-3" d="M-56.4,345.25V97.19c0-.09,0-.13,0-.13,1.52-9.72,1.59-19.61.22-29.35-.15-1.09-.23-2.21-.23-3.34V-5.31c0-12.91,10.5-23.41,23.41-23.41h1985.98c12.91,0,23.41,10.5,23.41,23.41v69.68c0,3.71-.83,7.23-2.47,10.44-7.18,14.07-10.92,29.64-10.92,45.44v20.25c0,11.05-8.99,20.04-20.04,20.04h-91.53c-18.02,0-34.45-9.28-43.93-24.83-18.16-29.77-50.51-47.93-85.37-47.93h-638.88c-35.71,0-68.71,19.04-86.58,49.96-1.65,2.85-8.02,12.15-20.82,12.15h-31.71c-12.8,0-19.17-9.3-20.82-12.16-17.87-30.92-50.87-49.96-86.58-49.96h-430.35c-55.23,0-100,44.77-100,100v101.29c0,30.98-25.2,56.18-56.18,56.18H-56.4Z"/>
        <path class="cls-2" d="M-56.4,345.25V97.19c0-.09,0-.13,0-.13,1.52-9.72,1.59-19.61.22-29.35-.15-1.09-.23-2.21-.23-3.34V-5.31c0-12.91,10.5-23.41,23.41-23.41h1985.98c12.91,0,23.41,10.5,23.41,23.41v69.68c0,3.71-.83,7.23-2.47,10.44-7.18,14.07-10.92,29.64-10.92,45.44v20.25c0,11.05-8.99,20.04-20.04,20.04h-91.53c-18.02,0-34.45-9.28-43.93-24.83-18.16-29.77-50.51-47.93-85.37-47.93h-638.88c-35.71,0-68.71,19.04-86.58,49.96-1.65,2.85-8.02,12.15-20.82,12.15h-31.71c-12.8,0-19.17-9.3-20.82-12.16-17.87-30.92-50.87-49.96-86.58-49.96h-430.35c-55.23,0-100,44.77-100,100v101.29c0,30.98-25.2,56.18-56.18,56.18H-56.4Z"/>
      </g>
    </g>
  </g>
</svg>